<svg width="244" height="188" viewBox="0 0 244 188" fill="none" xmlns="http://www.w3.org/2000/svg">
<path fill-rule="evenodd" clip-rule="evenodd" d="M58.1855 38.4588L68.7838 84.7663L77.4551 65.1445C80.3455 58.0806 97.2064 51.8016 100.097 65.1445L109.732 151.481L121.775 176.385V177.381L122.016 176.883L122.257 177.381V176.385L134.3 151.481L143.935 65.1445C146.825 51.8016 163.686 58.0806 166.577 65.1445L175.248 84.7663L185.846 38.4588C173.321 47.0924 143.935 39.4006 143.935 30.6101L149.234 0C142.964 4.08622 129.013 9.76796 122.257 0.691507V0C122.178 0.121369 122.097 0.240415 122.016 0.357172C121.934 0.240415 121.854 0.121369 121.775 0V0.691507C115.019 9.76796 101.068 4.08622 94.7977 0L100.097 30.6101C100.097 39.4006 70.7108 47.0924 58.1855 38.4588Z" fill="white"/>
<path d="M0.229248 185.896H243.763" stroke="white" stroke-width="4.093"/>
</svg>
