<svg width="24" height="16" viewBox="0 0 24 16" fill="none" xmlns="http://www.w3.org/2000/svg">
<path d="M1.59999 0H22.4C22.6122 0 22.8156 0.0842856 22.9657 0.234315C23.1157 0.384344 23.2 0.587827 23.2 0.8C23.2 1.01217 23.1157 1.21566 22.9657 1.36568C22.8156 1.51571 22.6122 1.6 22.4 1.6H1.59999C1.38782 1.6 1.18433 1.51571 1.03431 1.36568C0.884275 1.21566 0.799992 1.01217 0.799992 0.8C0.799992 0.587827 0.884275 0.384344 1.03431 0.234315C1.18433 0.0842856 1.38782 0 1.59999 0Z" fill="white"/>
<path d="M22.4 8.80001H12C11.7878 8.80001 11.5843 8.71573 11.4343 8.5657C11.2843 8.41567 11.2 8.21219 11.2 8.00001C11.2 7.78784 11.2843 7.58436 11.4343 7.43433C11.5843 7.2843 11.7878 7.20001 12 7.20001H22.4C22.6122 7.20001 22.8156 7.2843 22.9657 7.43433C23.1157 7.58436 23.2 7.78784 23.2 8.00001C23.2 8.21219 23.1157 8.41567 22.9657 8.5657C22.8156 8.71573 22.6122 8.80001 22.4 8.80001Z" fill="white"/>
<path d="M4.79999 14.4H22.4C22.6122 14.4 22.8156 14.4843 22.9657 14.6343C23.1157 14.7843 23.2 14.9878 23.2 15.2C23.2 15.4122 23.1157 15.6157 22.9657 15.7657C22.8156 15.9157 22.6122 16 22.4 16H4.79999C4.58782 16 4.38433 15.9157 4.2343 15.7657C4.08427 15.6157 3.99999 15.4122 3.99999 15.2C3.99999 14.9878 4.08427 14.7843 4.2343 14.6343C4.38433 14.4843 4.58782 14.4 4.79999 14.4Z" fill="white"/>
</svg>
