<svg width="90" height="90" viewBox="0 0 90 90" fill="none" xmlns="http://www.w3.org/2000/svg">
<path fill-rule="evenodd" clip-rule="evenodd" d="M72.1101 65.5225C76.4342 59.8191 79 52.7092 79 45C79 26.2223 63.7777 11 45 11C26.2223 11 11 26.2223 11 45C11 52.7092 13.5658 59.8191 17.8899 65.5225C15.7811 66.6475 14.0187 68.3367 12.8044 70.3886C7.29075 63.4062 4 54.5874 4 45C4 22.3563 22.3563 4 45 4C67.6437 4 86 22.3563 86 45C86 54.5874 82.7093 63.4062 77.1956 70.3886C75.9813 68.3367 74.2189 66.6475 72.1101 65.5225ZM68.0808 64.1656C72.4016 58.9679 75 52.2874 75 45C75 28.4315 61.5685 15 45 15C28.4315 15 15 28.4315 15 45C15 52.2874 17.5984 58.9679 21.9192 64.1656C22.5967 64.0566 23.2917 64 24 64C31.1797 64 37 69.8203 37 77C37 84.1797 31.1797 90 24 90C16.8203 90 11 84.1797 11 77C11 76.2186 11.0689 75.4534 11.2011 74.71C4.22862 66.7842 0 56.3859 0 45C0 20.1472 20.1472 0 45 0C69.8528 0 90 20.1472 90 45C90 56.3859 85.7714 66.7842 78.7989 74.71C78.9311 75.4534 79 76.2186 79 77C79 84.1797 73.1797 90 66 90C58.8203 90 53 84.1797 53 77C53 69.8203 58.8203 64 66 64C66.7083 64 67.4033 64.0566 68.0808 64.1656ZM24 86C28.9706 86 33 81.9706 33 77C33 72.0294 28.9706 68 24 68C19.0294 68 15 72.0294 15 77C15 81.9706 19.0294 86 24 86ZM66 86C70.9706 86 75 81.9706 75 77C75 72.0294 70.9706 68 66 68C61.0294 68 57 72.0294 57 77C57 81.9706 61.0294 86 66 86Z" fill="#828282"/>
</svg>
