<svg width="55" height="83" viewBox="0 0 55 83" fill="none" xmlns="http://www.w3.org/2000/svg">
<path d="M16.625 42.0526V65.5526H12.125M16.625 42.0526H3.62503M16.625 42.0526V40.5526H29.1251M3.62503 42.0526V65.5526H8.12503M3.62503 42.0526C0.124958 42.0526 0.125023 36.0526 3.62503 36.0526C5.99139 36.0526 10.1732 36.0526 14.625 36.0526M8.12503 65.5526V74.0526L10.125 79.5526L12.125 74.0526V65.5526M8.12503 65.5526H12.125M29.1251 36.0526V40.5526M29.1251 36.0526V20.0526C29.1251 19.7091 29.1135 19.3758 29.0911 19.0526M29.1251 36.0526C28.0014 36.0526 26.6376 36.0526 25.125 36.0526M29.1251 40.5526H39.125C43.625 40.5526 52.725 37.1526 53.125 23.5526V13.5526H44.625V16.0526M14.625 36.0526C18.2203 36.0526 21.9917 36.0526 25.125 36.0526M14.625 36.0526V31.8026M14.625 19.0526H25.125M14.625 19.0526V23.5526M14.625 19.0526H12.125V15.0526H28.1051M25.125 19.0526V23.5526M25.125 19.0526H29.0911M25.125 36.0526V31.8026M14.625 23.5526H25.125M14.625 23.5526V27.5526M25.125 23.5526V27.5526M14.625 27.5526H25.125M14.625 27.5526V31.8026M25.125 27.5526V31.8026M14.625 31.8026H25.125M29.0911 19.0526C28.9834 17.4965 28.6256 16.1728 28.1051 15.0526M28.1051 15.0526C26.3422 11.2578 22.7137 9.79835 20.625 9.55262H14.625C10.625 9.55262 10.1059 1.29045 14.625 1.0526C29.8641 0.250533 35.4537 8.77627 37.0695 16.0526M37.0695 16.0526C37.4683 17.8484 37.625 19.568 37.625 21.0526C37.625 25.5526 44.625 25.5526 44.625 21.0526V16.0526M37.0695 16.0526H44.625" stroke="#2A2A2A" stroke-width="2"/>
</svg>
